<?xml version="1.0" encoding="UTF-8" standalone="no"?>
<!-- Created with Inkscape (http://www.inkscape.org/) -->

<svg
   width="120.34742mm"
   height="61.307438mm"
   viewBox="0 0 120.34742 61.307438"
   version="1.1"
   id="svg1"
   xml:space="preserve"
   xmlns="http://www.w3.org/2000/svg"
   xmlns:svg="http://www.w3.org/2000/svg"><defs
     id="defs1"><style
       id="style1">
      .cls-1 {
        fill: #4a91a0;
      }

      .cls-2 {
        fill: #ffff;
        font-family: Calibri-Bold, Calibri;
        font-size: 33px;
        font-weight: 700;
      }
    </style></defs><g
     id="layer1"
     transform="translate(-31.374682,-56.104346)"><g
       id="g1"
       transform="matrix(0.27597513,0,0,0.24344772,-34.205288,-40.111061)"><path
         class="cls-1"
         d="m 361.23,410.06 -3.57,13.78 c -29.61,2.86 -55.38,18.88 -71.36,42.14 -9.3,13.5 -15.29,29.43 -16.84,46.64 l -14.78,4.2 c 0.93,-18.46 6.3,-35.75 15.07,-50.81 18.57,-31.94 52.39,-53.9 91.48,-55.95 z"
         id="path1" /><path
         class="cls-1"
         d="m 464.46,465.61 -16.55,0.04 C 432,442.69 406.54,426.87 377.28,423.89 l -4.04,-13.83 c 38.92,2.05 72.6,23.84 91.22,55.55 z"
         id="path2" /><path
         class="cls-1"
         d="m 363.95,635.23 c -41.2,-1.17 -76.85,-24.45 -95.52,-58.4 -7.74,-14.03 -12.55,-29.89 -13.66,-46.76 l 15.09,4.02 c 2,15.7 7.71,30.23 16.23,42.7 16.3,23.91 42.91,40.24 73.43,42.6 z"
         id="path3" /><path
         class="cls-1"
         d="m 466.24,576.43 c -18.04,33.1 -52.18,56.15 -91.9,58.62 l 4.35,-16.02 c 29.07,-3.39 54.27,-19.47 69.88,-42.57 z"
         id="path4" /><path
         class="cls-1"
         d="m 324.22,484.14 c -2.67,-3.23 -5.35,-6.46 -8.02,-9.69 1.46,4.04 2.92,8.09 4.39,12.13 l -2.11,1.41 -10.63,-27.35 22.12,19.64 z"
         id="path5" /><path
         class="cls-1"
         d="m 332.53,571.22 -26.56,12.48 18.08,-23.42 4.24,5.47 c -3.04,2.89 -6.08,5.79 -9.12,8.68 3.93,-1.74 7.87,-3.48 11.8,-5.21 z"
         id="path6" /><path
         class="cls-1"
         d="m 430.88,587.56 -25.51,-14.99 4.89,-4.89 c 3.25,2.65 6.5,5.3 9.76,7.95 -2.22,-3.68 -4.44,-7.37 -6.66,-11.05 l 1.79,-1.8 z"
         id="path7" /><path
         class="cls-1"
         d="M 433.77,460.64 415.1,483.6 411,478.02 c 3.11,-2.81 6.22,-5.63 9.33,-8.44 -3.97,1.64 -7.95,3.27 -11.93,4.91 l -1.5,-2.04 z"
         id="path8" /><path
         class="cls-1"
         d="m 385.49,465.61 h -17.01 c -1.04,-10.26 -2.08,-20.52 -3.12,-30.77 -2.55,10.25 -5.1,20.51 -7.65,30.77 h -6.24 l 9.4,-42.02 3.05,-13.64 3.3,-14.73 3.83,14.75 3.55,13.68 z"
         id="path9" /><path
         class="cls-1"
         d="m 385.49,576.85 -10.02,42.5 -3.73,15.84 -2.8,11.86 -2.92,-11.78 -3.88,-15.71 -10.67,-43.1 17.01,0.19 c 0.92,10.27 1.84,20.54 2.77,30.81 2.66,-10.23 5.33,-20.46 8,-30.68 z"
         id="path10" /><path
         class="cls-1"
         d="m 308.03,522.59 c -10.26,0.97 -20.53,1.93 -30.8,2.9 10.24,2.62 20.48,5.25 30.72,7.87 l -0.04,6.24 -38.43,-8.89 -14.85,-3.44 -17,-3.93 16.95,-4.27 14.67,-3.69 38.9,-9.8 z"
         id="path11" /><path
         class="cls-1"
         d="m 324.22,484.14 c -2.67,-3.23 -5.35,-6.46 -8.02,-9.69 1.46,4.04 2.92,8.09 4.39,12.13 l -2.11,1.41 -10.63,-27.35 22.12,19.64 z"
         id="path12" /><path
         class="cls-1"
         d="m 332.53,571.22 -26.56,12.48 18.08,-23.42 4.24,5.47 c -3.04,2.89 -6.08,5.79 -9.12,8.68 3.93,-1.74 7.87,-3.48 11.8,-5.21 z"
         id="path13" /><path
         class="cls-1"
         d="M 433.77,460.64 415.1,483.6 411,478.02 c 3.11,-2.81 6.22,-5.63 9.33,-8.44 -3.97,1.64 -7.95,3.27 -11.93,4.91 l -1.5,-2.04 z"
         id="path14" /><path
         class="cls-1"
         d="m 430.88,587.56 -25.51,-14.99 4.89,-4.89 c 3.25,2.65 6.5,5.3 9.76,7.95 -2.22,-3.68 -4.44,-7.37 -6.66,-11.05 l 1.79,-1.8 z"
         id="path15" /><path
         class="cls-1"
         d="m 324.22,484.14 c -2.67,-3.23 -5.35,-6.46 -8.02,-9.69 1.46,4.04 2.92,8.09 4.39,12.13 l -2.11,1.41 -10.63,-27.35 22.12,19.64 z"
         id="path16" /><path
         class="cls-1"
         d="m 332.53,571.22 -26.56,12.48 18.08,-23.42 4.24,5.47 c -3.04,2.89 -6.08,5.79 -9.12,8.68 3.93,-1.74 7.87,-3.48 11.8,-5.21 z"
         id="path17" /><path
         class="cls-1"
         d="m 430.88,587.56 -25.51,-14.99 4.89,-4.89 c 3.25,2.65 6.5,5.3 9.76,7.95 -2.22,-3.68 -4.44,-7.37 -6.66,-11.05 l 1.79,-1.8 z"
         id="path18" /><path
         class="cls-1"
         d="M 433.77,460.64 415.1,483.6 411,478.02 c 3.11,-2.81 6.22,-5.63 9.33,-8.44 -3.97,1.64 -7.95,3.27 -11.93,4.91 l -1.5,-2.04 z"
         id="path19" /><path
         class="cls-1"
         d="m 361.23,410.06 -3.57,13.78 c -29.61,2.86 -55.38,18.88 -71.36,42.14 -9.3,13.5 -15.29,29.43 -16.84,46.64 l -14.78,4.2 c 0.93,-18.46 6.3,-35.75 15.07,-50.81 18.57,-31.94 52.39,-53.9 91.48,-55.95 z"
         id="path20" /><path
         class="cls-1"
         d="m 374.6,423.65 10.89,41.96 h -17.01 c -1.04,-10.26 -2.08,-20.52 -3.12,-30.77 -2.55,10.25 -5.1,20.51 -7.65,30.77 h -6.24 l 9.4,-42.02 3.05,-13.64 3.3,-14.73 3.83,14.75 z"
         id="path21" /><path
         class="cls-1"
         d="m 464.46,465.61 -16.55,0.04 C 432,442.69 406.54,426.87 377.28,423.89 l -4.04,-13.83 c 38.92,2.05 72.6,23.84 91.22,55.55 z"
         id="path22" /><path
         class="cls-1"
         d="m 308.03,522.59 c -10.26,0.97 -20.53,1.93 -30.8,2.9 10.24,2.62 20.48,5.25 30.72,7.87 l -0.04,6.24 -38.43,-8.89 -14.85,-3.44 -17,-3.93 16.95,-4.27 14.67,-3.69 38.9,-9.8 z"
         id="path23" /><path
         class="cls-1"
         d="m 363.95,635.23 c -41.2,-1.17 -76.85,-24.45 -95.52,-58.4 -7.74,-14.03 -12.55,-29.89 -13.66,-46.76 l 15.09,4.02 c 2,15.7 7.71,30.23 16.23,42.7 16.3,23.91 42.91,40.24 73.43,42.6 z"
         id="path24" /><path
         class="cls-1"
         d="m 385.49,576.85 -10.02,42.5 -3.73,15.84 -2.8,11.86 -2.92,-11.78 -3.88,-15.71 -10.67,-43.1 17.01,0.19 c 0.92,10.27 1.84,20.54 2.77,30.81 2.66,-10.23 5.33,-20.46 8,-30.68 z"
         id="path25" /><path
         class="cls-1"
         d="m 466.24,576.43 c -18.04,33.1 -52.18,56.15 -91.9,58.62 l 4.35,-16.02 c 29.07,-3.39 54.27,-19.47 69.88,-42.57 z"
         id="path26" /><text
         class="cls-2"
         transform="translate(338.78,534.76)"
         id="text26"><tspan
           x="0"
           y="0"
           id="tspan26">GSUN MARINE SERVICES</tspan></text></g></g></svg>
