<?xml version="1.0" standalone="no"?>
<!DOCTYPE svg PUBLIC "-//W3C//DTD SVG 20010904//EN"
 "http://www.w3.org/TR/2001/REC-SVG-20010904/DTD/svg10.dtd">
<svg version="1.0" xmlns="http://www.w3.org/2000/svg"
 width="400.000000pt" height="620.000000pt" viewBox="0 0 400.000000 620.000000"
 preserveAspectRatio="xMidYMid meet">

<g transform="translate(0.000000,620.000000) scale(0.100000,-0.100000)"
fill="#000000" stroke="none">
<path d="M1962 5947 c-45 -48 -58 -167 -22 -205 26 -28 50 -28 84 -1 29 23 61
77 51 87 -3 3 -8 -4 -12 -16 -3 -12 -10 -19 -16 -15 -6 4 -7 1 -3 -6 6 -9 -1
-12 -25 -9 -22 2 -33 8 -31 16 1 8 -2 11 -7 8 -5 -3 -16 -3 -25 0 -18 7 -23
74 -5 74 5 0 8 4 5 8 -3 5 4 25 14 45 23 43 22 46 -8 14z"/>
<path d="M1906 5683 c-20 -169 -69 -404 -122 -588 -79 -271 -152 -445 -375
-892 -119 -237 -233 -451 -253 -476 -19 -24 -80 -82 -133 -128 -54 -46 -126
-111 -162 -144 -73 -69 -259 -276 -287 -320 -10 -16 -21 -32 -24 -35 -18 -16
-76 -120 -121 -215 -100 -213 -155 -404 -184 -638 -23 -181 -16 -465 15 -610
89 -421 319 -771 657 -1004 73 -50 113 -62 77 -22 -24 27 -12 34 26 14 70 -36
48 -5 -41 57 -236 165 -373 320 -518 583 -2 5 -4 23 -3 40 1 16 -3 37 -8 45
-8 13 -10 12 -10 -4 0 -11 -3 -17 -6 -13 -3 3 -3 15 1 27 6 19 16 6 63 -79 98
-175 198 -295 353 -426 132 -111 359 -253 359 -225 0 7 7 7 21 -1 15 -8 19 -8
15 0 -4 6 -2 11 3 11 6 0 11 5 11 11 0 6 -9 9 -20 6 -10 -3 -18 -2 -17 2 3 12
-175 196 -210 216 -18 11 -33 22 -33 26 0 4 -11 10 -25 13 -16 4 -22 11 -19
20 4 10 -6 21 -28 31 -157 80 -302 270 -386 508 -45 128 -47 143 -43 467 2
194 19 382 36 410 16 26 23 -8 20 -93 l-4 -92 13 65 c27 132 64 208 100 210 5
0 6 -43 2 -100 -5 -67 -3 -100 4 -100 5 0 10 -20 10 -45 0 -32 4 -45 14 -45 8
0 16 7 20 15 4 11 22 15 71 15 l65 0 0 -32 c1 -27 2 -30 11 -16 5 10 11 33 13
50 16 155 75 368 111 398 8 7 15 19 15 26 0 21 17 17 23 -6 6 -22 42 -28 50
-7 3 6 6 -5 6 -25 1 -40 19 -88 33 -88 4 0 8 -6 8 -14 0 -10 9 -12 42 -6 24 5
46 6 50 4 5 -3 8 -2 8 3 0 4 13 14 30 21 28 13 57 40 110 102 l21 25 -7 -24
c-4 -14 -2 -21 4 -17 5 3 12 15 15 26 3 11 1 18 -4 14 -14 -8 -11 13 4 28 15
14 17 20 17 44 0 8 4 12 10 9 6 -3 7 1 4 9 -3 9 -1 16 6 16 6 0 8 5 5 11 -4 5
0 18 9 28 28 31 67 152 70 217 1 35 0 61 -2 59 -3 -3 -11 3 -18 13 -12 15 -14
11 -15 -30 -2 -57 0 -49 -23 -120 -10 -32 -22 -58 -27 -58 -4 0 -11 -9 -14
-20 -3 -11 -14 -20 -24 -20 -9 0 -32 -15 -50 -34 -19 -19 -47 -40 -62 -47 -16
-6 -29 -15 -29 -19 0 -5 -7 -16 -16 -24 -12 -12 -20 -14 -36 -5 -18 10 -19 17
-13 90 6 67 4 80 -9 85 -24 9 -20 20 28 98 45 72 80 138 213 396 41 80 85 165
98 190 43 83 107 235 109 257 0 11 4 19 8 17 9 -6 29 66 22 78 -3 4 -1 8 4 8
5 0 31 66 57 148 26 81 51 157 56 170 11 28 11 32 1 32 -9 0 -37 -62 -45 -100
-9 -42 -31 -100 -38 -100 -4 0 -12 -27 -20 -60 -7 -33 -17 -60 -21 -60 -4 0
-8 -8 -8 -18 0 -18 -18 -42 -31 -42 -4 0 -1 12 7 28 7 15 14 30 14 35 0 4 9
26 19 50 11 23 22 64 25 91 3 27 10 54 15 60 4 6 11 25 15 41 4 17 13 44 20
60 17 39 72 270 86 356 15 96 14 174 -3 161 -10 -9 -12 -3 -9 26 2 20 6 44 10
52 8 19 9 27 13 70 1 20 5 2 8 -40 l6 -75 13 75 c6 41 19 107 27 145 8 39 15
88 15 110 0 22 6 90 14 150 8 61 22 177 31 260 10 82 19 154 21 160 3 6 14 12
26 12 12 1 27 8 35 16 11 11 8 12 -22 9 -25 -3 -36 0 -41 12 -12 30 -22 16
-28 -41z m-308 -1432 c3 -30 -36 -160 -74 -246 -10 -22 -17 -44 -16 -48 2 -5
-8 -5 -20 -2 -19 6 -21 5 -10 -6 17 -18 15 -30 -11 -63 l-23 -28 -1 58 c-1 50
8 81 54 199 30 77 60 148 65 158 14 27 33 15 36 -22z m19 -103 c-3 -8 -6 -5
-6 6 -1 11 2 17 5 13 3 -3 4 -12 1 -19z m-22 -72 c-8 -25 -21 -57 -30 -73 -16
-27 -16 -27 -11 -3 7 42 41 128 48 124 3 -2 0 -24 -7 -48z m-245 -161 c0 -27
-45 -154 -60 -169 -19 -19 -22 28 -5 83 31 100 65 145 65 86z m-250 -298 c0
-2 -12 -14 -27 -28 l-28 -24 24 28 c23 25 31 32 31 24z m-233 -232 c-63 -48
-188 -193 -262 -305 -77 -116 -184 -332 -226 -458 -35 -104 -49 -117 -24 -23
44 170 146 383 246 516 82 110 193 231 248 271 61 44 77 44 18 -1z m73 31 c0
-2 -8 -10 -17 -17 -16 -13 -17 -12 -4 4 13 16 21 21 21 13z m-121 -113 c-46
-49 -104 -110 -128 -138 -23 -27 -33 -36 -22 -18 23 34 219 243 229 243 3 0
-32 -39 -79 -87z"/>
<path d="M1453 3930 c0 -16 4 -30 9 -30 10 0 10 31 0 48 -6 8 -9 2 -9 -18z"/>
<path d="M2122 5600 c0 -14 2 -19 5 -12 2 6 2 18 0 25 -3 6 -5 1 -5 -13z"/>
<path d="M2131 5529 c-1 -30 31 -211 59 -332 19 -79 118 -393 140 -442 5 -11
21 -49 35 -85 14 -36 37 -89 50 -117 14 -29 27 -65 31 -80 4 -16 11 -33 16
-39 10 -14 16 -35 32 -119 6 -33 15 -66 19 -72 5 -7 6 -17 3 -22 -3 -4 4 -26
15 -47 12 -22 19 -29 16 -16 -11 46 17 15 38 -44 46 -127 234 -482 248 -468 3
3 9 -5 13 -20 3 -14 10 -26 14 -26 14 0 70 -58 70 -72 0 -10 -3 -9 -10 2 -6 9
-10 10 -10 3 0 -6 20 -28 45 -49 61 -50 198 -238 282 -390 84 -149 207 -402
229 -469 12 -38 34 -101 47 -140 14 -38 33 -97 42 -130 9 -33 21 -77 27 -97 7
-24 9 -99 6 -215 -5 -157 -8 -179 -25 -192 -10 -9 -24 -34 -30 -56 -7 -22 -19
-62 -28 -90 -9 -27 -17 -60 -18 -72 0 -12 -4 -20 -8 -18 -4 3 -9 -9 -13 -25
-3 -17 -28 -79 -56 -139 -27 -59 -50 -113 -50 -118 0 -6 -3 -13 -7 -15 -5 -2
-15 -15 -23 -29 -43 -75 -151 -189 -179 -189 -10 0 -21 -6 -24 -14 -3 -7 -25
-23 -49 -35 -23 -13 -52 -31 -63 -41 -18 -15 -69 -44 -158 -86 -39 -19 -77
-17 -128 6 -69 31 -139 25 -139 -11 0 -29 -37 -43 -134 -48 -5 -1 -6 -28 -3
-61 4 -52 2 -62 -19 -85 -12 -14 -34 -25 -48 -25 -13 0 -44 -8 -68 -18 -53
-23 -172 -46 -193 -38 -9 3 -13 2 -10 -4 4 -6 -5 -10 -20 -10 -17 0 -24 -4
-19 -11 4 -8 -1 -9 -16 -4 -16 5 -20 4 -15 -5 4 -7 -6 -23 -26 -40 l-34 -29
30 -1 c24 0 27 -2 15 -11 -11 -8 27 -9 133 -4 150 6 187 0 187 -31 0 -57 -416
-86 -570 -39 -67 20 -90 39 -71 57 9 9 46 12 131 10 73 -1 121 2 125 8 4 6 -7
10 -27 11 -83 2 -157 10 -202 21 -40 10 -50 10 -54 0 -3 -10 -8 -10 -26 1 -21
14 -126 34 -126 24 0 -3 22 -18 50 -34 54 -30 68 -50 23 -31 -16 6 -43 10 -61
9 -21 -1 -31 2 -27 9 3 5 1 10 -4 10 -20 0 -11 -20 13 -30 31 -11 42 -30 25
-41 -15 -9 -20 -7 71 -32 89 -26 144 -40 160 -42 8 -1 49 -8 91 -15 117 -19
454 -8 594 19 110 22 260 63 302 84 13 6 26 7 30 4 8 -8 173 79 257 136 289
194 498 467 610 797 50 147 85 325 91 455 3 76 1 97 -4 70 -13 -58 -36 -116
-44 -108 -4 3 -7 88 -7 187 -1 170 -17 349 -39 441 -6 22 -14 58 -20 80 -22
96 -40 148 -51 155 -6 4 -11 10 -10 14 8 37 -167 380 -201 394 -4 2 -6 9 -3
15 2 7 -7 25 -21 42 -15 16 -35 44 -46 62 -11 18 -25 33 -30 33 -5 0 -15 11
-21 25 -6 14 -14 21 -18 15 -6 -10 -230 199 -230 216 0 5 -11 21 -25 36 -26
28 -32 48 -15 48 18 0 11 14 -28 55 -21 22 -53 63 -72 90 -19 28 -44 62 -55
76 -12 14 -34 51 -49 82 -16 31 -33 54 -39 50 -6 -3 -7 -1 -3 5 3 5 -5 24 -19
41 -15 16 -26 33 -25 36 1 3 -39 88 -88 188 -118 240 -182 374 -182 381 0 3
-13 34 -29 70 -70 151 -176 507 -226 756 -13 63 -24 103 -24 89z m780 -1861
c18 -20 23 -28 16 -28 -2 0 -14 11 -27 25 -13 14 -20 25 -15 25 4 0 16 -10 26
-22z m84 -2992 c-70 -48 -200 -116 -310 -160 -107 -43 -144 -47 -60 -6 53 26
56 29 25 25 l-35 -5 35 14 c19 8 45 15 57 15 12 1 69 24 127 52 58 27 109 50
113 51 4 0 17 7 28 14 11 8 24 14 29 14 6 0 2 -6 -9 -14z m-480 -95 c10 -18
-18 -24 -129 -27 -124 -3 -126 -1 -11 20 97 17 132 19 140 7z"/>
<path d="M1853 4003 c-6 -21 -10 -39 -8 -41 7 -8 26 40 23 59 -2 15 -6 10 -15
-18z"/>
<path d="M1736 3998 c-1 -7 -10 -36 -19 -64 -24 -72 -22 -114 2 -53 19 49 35
129 26 129 -3 0 -7 -6 -9 -12z"/>
<path d="M1836 3853 c-3 -21 -11 -65 -16 -98 -6 -33 -15 -97 -20 -142 -6 -44
-19 -125 -31 -180 -11 -54 -24 -120 -29 -148 -15 -84 -74 -307 -86 -327 -13
-21 -32 -108 -24 -113 4 -2 10 9 14 25 6 34 22 39 31 10 3 -11 11 -20 16 -20
5 0 9 9 9 20 0 13 7 20 19 20 11 0 22 6 24 13 4 9 8 8 17 -3 9 -11 13 -12 17
-2 2 6 18 12 34 12 16 0 29 5 29 10 0 6 -13 10 -30 10 -16 0 -30 5 -30 10 0 6
14 10 30 10 23 0 30 4 30 20 0 13 7 20 20 20 13 0 20 -7 20 -20 0 -13 7 -20
20 -20 11 0 20 5 20 10 0 6 9 10 20 10 11 0 20 5 20 11 0 6 -9 9 -20 6 -13 -3
-20 0 -20 9 0 10 12 14 40 14 38 0 40 2 40 30 0 23 4 30 20 30 11 0 20 5 20
10 0 6 9 10 20 10 11 0 20 5 20 10 0 6 9 10 19 10 17 0 20 9 23 68 3 46 0 70
-9 78 -7 6 -13 16 -13 23 0 6 -4 11 -10 11 -5 0 -10 9 -10 20 0 11 -4 20 -10
20 -5 0 -7 13 -3 30 4 23 2 30 -11 30 -12 0 -16 10 -16 40 0 22 -4 40 -10 40
-6 0 -10 29 -10 66 0 60 -3 68 -30 94 -18 17 -30 38 -30 54 0 19 -5 26 -20 26
-13 0 -20 7 -20 19 0 37 -76 45 -83 9 -3 -14 -5 -9 -6 15 -1 33 2 37 24 37 18
0 25 5 25 20 0 11 5 20 10 20 6 0 10 7 10 15 0 8 -9 15 -20 15 -11 0 -20 5
-20 10 0 6 -4 10 -9 10 -4 0 -11 -17 -15 -37z"/>
<path d="M1061 3833 c-31 -37 -41 -86 -21 -98 6 -3 25 4 43 17 17 12 -7 -15
-55 -61 -49 -46 -88 -87 -88 -91 0 -40 182 124 219 198 12 23 17 42 12 42 -5
0 -12 -9 -16 -19 -3 -11 -13 -25 -21 -32 -12 -9 -11 -6 2 18 39 67 -23 89 -75
26z m57 -9 c-24 -24 -44 -7 -22 17 12 13 21 16 28 9 7 -7 5 -15 -6 -26z"/>
<path d="M1681 3798 c-10 -30 -9 -31 4 -14 8 11 15 26 15 33 0 22 -8 14 -19
-19z"/>
<path d="M1631 3653 c-12 -43 -33 -102 -47 -131 -13 -29 -24 -55 -24 -58 0
-13 -93 -261 -111 -297 -20 -37 -20 -39 -2 -53 26 -20 33 -17 33 11 0 15 6 38
14 53 8 15 17 44 21 65 4 20 11 37 15 37 4 0 11 15 14 33 3 18 18 67 32 108
14 41 27 81 28 89 1 8 8 25 14 37 7 12 12 29 12 38 0 8 9 41 20 72 11 32 16
61 12 65 -5 5 -18 -27 -31 -69z"/>
<path d="M1741 3685 c-1 -11 -5 -29 -7 -40 -3 -11 -7 -44 -9 -73 -2 -30 -9
-60 -15 -67 -8 -10 -8 -15 0 -20 16 -10 18 -6 22 60 1 33 7 63 11 66 5 3 7 26
4 50 -2 24 -5 35 -6 24z"/>
<path d="M2980 3591 c0 -5 7 -11 15 -15 8 -3 20 -17 27 -31 6 -14 15 -25 20
-25 9 0 -8 33 -31 63 -15 18 -31 23 -31 8z"/>
<path d="M1694 3466 c-3 -8 -3 -20 1 -27 4 -6 3 -14 -3 -18 -6 -4 -13 -22 -14
-41 -2 -19 -6 -37 -9 -40 -3 -3 -20 -66 -38 -140 -18 -74 -36 -142 -41 -150
-4 -9 -10 -31 -14 -50 -3 -19 -3 -29 0 -21 5 10 10 8 20 -10 l13 -24 1 30 c0
17 6 40 14 51 14 19 34 99 41 157 1 15 4 28 5 30 1 1 4 11 6 22 1 11 9 47 17
80 23 94 29 152 17 160 -5 3 -13 -1 -16 -9z"/>
<path d="M1556 2943 c-6 -14 -5 -15 5 -6 7 7 10 15 7 18 -3 3 -9 -2 -12 -12z"/>
<path d="M1572 2905 c0 -16 2 -22 5 -12 2 9 2 23 0 30 -3 6 -5 -1 -5 -18z"/>
<path d="M1545 2908 c-2 -7 -13 -36 -23 -65 -12 -30 -16 -57 -11 -64 6 -10 8
-8 7 6 -1 26 20 77 29 72 5 -3 9 10 10 29 2 34 -4 45 -12 22z"/>
<path d="M2335 2826 c-23 -16 -41 -51 -84 -162 -47 -121 -40 -219 18 -281 30
-31 93 -47 135 -33 71 23 96 80 103 237 4 89 2 122 -12 167 -10 31 -19 55 -21
53 -2 -1 2 -36 8 -76 18 -122 -10 -202 -82 -229 -61 -23 -110 48 -110 159 0
65 26 131 64 161 25 21 9 24 -19 4z m125 -391 c-40 -65 -85 -72 -136 -21 -19
19 -34 39 -34 44 0 6 13 -3 29 -19 42 -41 84 -40 125 5 39 42 45 38 16 -9z"/>
<path d="M991 2529 c-14 -39 -14 -57 -2 -43 10 10 25 74 18 74 -3 0 -10 -14
-16 -31z"/>
<path d="M2612 2518 c-2 -21 -18 -24 -25 -5 -3 6 -6 2 -6 -9 -1 -22 25 -52 35
-41 3 3 4 20 1 39 -2 18 -5 25 -5 16z"/>
<path d="M2573 2460 c2 -8 12 -16 23 -17 13 -2 15 -1 4 4 -8 3 -19 11 -23 17
-6 7 -7 6 -4 -4z"/>
<path d="M948 2400 c-7 -68 -5 -112 4 -96 5 10 7 29 3 43 -4 17 -1 29 7 34 10
7 10 11 0 21 -9 9 -12 9 -14 -2z"/>
<path d="M2330 2216 c0 -15 8 -30 19 -36 16 -8 23 -6 35 12 9 12 16 27 16 33
0 5 -4 4 -9 -4 -8 -12 -13 -12 -35 3 -26 16 -26 16 -26 -8z"/>
<path d="M1095 2190 c-3 -5 -1 -10 4 -10 6 0 11 5 11 10 0 6 -2 10 -4 10 -3 0
-8 -4 -11 -10z"/>
<path d="M1438 1827 c-15 -36 -9 -75 14 -91 15 -11 24 -12 29 -5 4 7 11 9 16
6 5 -3 10 -1 11 6 0 7 4 23 8 37 l7 25 -22 -25 c-12 -14 -20 -20 -17 -14 3 7
-3 14 -13 17 -12 3 -21 15 -23 33 -2 24 -4 26 -10 11z"/>
</g>
</svg>
