<?xml version="1.0" standalone="no"?>
<!DOCTYPE svg PUBLIC "-//W3C//DTD SVG 20010904//EN"
 "http://www.w3.org/TR/2001/REC-SVG-20010904/DTD/svg10.dtd">
<svg version="1.0" xmlns="http://www.w3.org/2000/svg"
 width="756.000000pt" height="900.000000pt" viewBox="0 0 756.000000 900.000000"
 preserveAspectRatio="xMidYMid meet">

<g transform="translate(0.000000,900.000000) scale(0.100000,-0.100000)"
fill="#000000" stroke="none">
<path d="M3645 8183 c-39 -39 -74 -122 -134 -318 -125 -409 -177 -553 -271
-750 -112 -237 -249 -466 -538 -905 -296 -449 -423 -660 -544 -903 -219 -439
-400 -914 -473 -1240 -39 -175 -74 -396 -84 -527 -7 -105 -8 -108 -9 -40 -1
41 3 116 8 167 11 101 8 119 -21 128 -15 5 -19 16 -19 56 0 27 -4 49 -10 49
-5 0 -10 -18 -10 -39 0 -21 -7 -75 -15 -118 -15 -81 -34 -408 -30 -518 1 -33
7 -87 13 -120 6 -33 13 -95 17 -138 4 -45 13 -83 21 -91 8 -8 14 -19 14 -25 0
-12 30 -15 30 -3 0 4 7 15 15 26 13 17 15 17 39 -9 14 -15 28 -44 32 -64 4
-20 9 -40 13 -46 15 -25 40 -113 41 -141 0 -16 7 -39 15 -50 23 -30 19 -51 -5
-29 -27 24 -62 90 -78 143 -7 24 -20 46 -28 49 -8 3 -14 19 -14 41 0 19 -3 32
-6 29 -4 -3 -14 -2 -23 3 -10 5 -22 6 -28 2 -13 -9 -24 -90 -12 -98 5 -3 9
-27 9 -53 0 -26 4 -51 9 -56 5 -6 21 -39 34 -75 13 -36 34 -83 46 -105 11 -22
21 -54 21 -72 0 -18 4 -33 8 -33 4 0 14 -21 21 -47 20 -67 114 -247 150 -289
17 -19 31 -40 31 -46 0 -6 17 -30 37 -53 21 -24 54 -64 73 -89 86 -114 426
-416 469 -416 5 0 11 -7 15 -15 3 -8 10 -15 15 -15 6 0 29 -13 53 -29 118 -79
376 -207 506 -250 269 -90 465 -123 727 -123 204 -1 350 16 493 57 48 14 51
17 42 36 -27 49 13 115 44 74 9 -11 16 -33 16 -48 0 -27 2 -28 31 -22 30 7
153 54 237 91 35 15 42 23 37 39 -3 11 -8 36 -10 55 -4 30 -2 28 11 -12 8 -27
21 -48 27 -48 18 0 168 87 189 110 11 11 24 17 30 14 6 -4 8 -3 4 4 -3 6 11
17 37 27 24 9 52 30 65 48 12 18 39 50 59 72 l36 40 -29 -50 -28 -50 39 29
c220 163 458 419 610 656 185 289 322 654 367 980 17 123 17 610 0 740 -65
494 -165 820 -401 1305 -158 322 -338 612 -601 964 -222 299 -295 399 -405
561 -54 80 -141 206 -193 280 -139 200 -243 371 -348 574 -51 100 -94 173 -94
162 0 -10 11 -69 24 -130 13 -61 32 -147 41 -191 27 -125 81 -297 146 -457 32
-81 63 -156 68 -165 32 -63 51 -113 48 -124 -2 -8 -2 -10 1 -6 7 13 31 -26 32
-50 0 -12 5 -33 11 -47 9 -20 9 -29 0 -40 -11 -13 -8 -16 16 -22 38 -9 53 -22
53 -46 0 -11 14 -33 30 -48 19 -18 28 -34 24 -44 -4 -11 0 -16 15 -16 13 0 19
-5 15 -14 -3 -7 11 -30 31 -50 19 -20 33 -42 29 -48 -4 -6 -3 -8 3 -5 6 4 14
-1 17 -11 3 -9 12 -26 19 -37 260 -421 548 -1005 666 -1348 81 -237 139 -531
156 -797 8 -122 -9 -376 -36 -521 -23 -132 -95 -393 -144 -527 -70 -187 -189
-400 -319 -572 -129 -169 -202 -240 -377 -358 -162 -110 -396 -204 -589 -236
-109 -18 -319 -31 -280 -17 22 8 21 9 -15 10 -22 1 -56 4 -76 7 l-35 6 4 59
c3 39 1 59 -7 59 -6 0 -11 9 -11 20 0 13 -7 20 -20 20 -13 0 -20 7 -20 20 0
11 -4 20 -10 20 -5 0 -10 9 -10 20 0 11 -4 20 -10 20 -5 0 -10 6 -10 13 0 7
-9 19 -20 27 -11 8 -20 20 -20 27 0 7 -4 13 -10 13 -6 0 -10 46 -10 119 l0
118 36 6 c54 9 64 21 50 59 -8 24 -8 32 2 35 6 3 12 13 12 24 0 12 7 19 19 19
15 0 19 7 19 30 -1 16 -5 30 -10 30 -4 0 -8 7 -8 16 0 8 5 12 10 9 6 -3 10 1
10 11 0 9 8 24 18 33 10 9 21 24 25 34 3 9 13 17 22 17 10 0 15 10 15 30 0 17
5 30 10 30 6 0 10 18 10 40 0 33 3 40 20 40 11 0 20 5 20 10 0 6 9 10 20 10
12 0 20 7 20 16 0 18 23 44 40 44 22 0 40 29 40 64 0 20 -4 36 -10 36 -5 0
-10 9 -10 20 0 11 5 20 10 20 6 0 10 17 10 38 0 26 6 42 20 52 31 22 26 56
-10 69 -16 5 -30 15 -30 20 0 10 4 12 30 15 6 1 19 -12 30 -29 l20 -30 0 30
c0 17 4 35 9 40 5 6 11 19 13 30 1 11 8 26 15 33 17 17 33 79 33 124 0 20 8
56 18 80 11 24 17 49 14 56 -2 7 8 36 22 65 14 29 28 73 31 100 4 26 10 47 16
47 14 0 11 22 -7 42 -16 16 -16 18 0 24 11 4 16 19 16 50 0 32 4 44 14 44 10
0 17 15 20 43 12 96 15 164 9 187 -6 22 -7 23 -14 4 -7 -18 -8 -17 -8 4 -1 12
-6 22 -13 22 -9 0 -9 3 0 12 7 7 12 23 12 38 1 22 2 23 11 7 8 -13 7 -22 -1
-32 -7 -9 -8 -15 0 -20 9 -6 14 0 12 16 -1 4 10 10 23 13 17 4 23 11 19 24 -4
14 -3 13 7 -2 10 -16 9 -21 -7 -33 -16 -12 -16 -13 -1 -13 22 0 31 22 23 56
-6 22 -9 24 -22 13 -13 -11 -21 -6 -54 32 -22 24 -39 39 -40 32 0 -6 5 -14 10
-16 6 -3 5 -4 -2 -3 -7 2 -13 9 -14 17 -2 31 -17 69 -25 63 -5 -3 -9 8 -9 23
0 16 -6 38 -14 49 -10 13 -11 23 -4 31 8 10 3 12 -23 7 -19 -3 -39 -7 -45 -9
-6 -2 -14 -34 -17 -71 -4 -58 -9 -72 -32 -92 -21 -18 -37 -22 -69 -20 -36 3
-41 6 -44 30 -3 24 1 28 38 38 l41 11 -2 53 c-3 69 22 113 68 122 42 8 48 18
29 46 -9 12 -16 37 -16 54 0 31 -26 94 -38 94 -4 0 -7 212 -7 472 0 363 3 472
13 476 16 5 16 39 0 45 -9 3 -6 11 10 24 12 11 22 31 22 44 0 14 9 31 20 39
11 8 20 22 20 32 0 10 5 18 10 18 6 0 10 7 10 16 0 18 23 44 40 44 17 0 40 26
40 44 0 19 17 21 22 4 7 -21 38 17 38 46 0 14 5 26 10 26 6 0 10 11 10 24 0
42 11 56 41 56 27 0 29 -3 30 -37 0 -21 4 -47 9 -58 7 -17 9 -15 9 12 1 25 5
31 16 27 8 -4 15 -10 15 -14 0 -4 11 -28 25 -53 l26 -45 32 16 c18 9 37 23 44
31 15 19 17 61 3 61 -5 0 -10 16 -10 36 0 40 -18 113 -32 128 -12 15 -10 54 5
59 9 3 6 16 -10 51 -13 25 -23 55 -23 66 0 13 -7 20 -20 20 -13 0 -20 7 -20
20 0 11 -4 20 -10 20 -5 0 -10 14 -10 31 0 35 -20 59 -48 59 -25 0 -55 35 -80
93 -12 26 -25 47 -30 47 -4 0 -18 9 -31 21 -21 20 -23 20 -41 4 -13 -12 -17
-26 -14 -44 3 -14 6 -33 7 -41 2 -8 6 -21 10 -27 5 -8 4 -13 -2 -13 -6 0 -18
18 -27 41 -15 35 -20 40 -40 35 -17 -5 -24 -2 -24 9 0 8 -8 15 -18 15 -10 0
-25 11 -32 25 -7 13 -21 27 -30 30 -24 8 -60 40 -60 54 0 17 -22 51 -52 83
-16 15 -28 33 -28 40 0 8 -7 24 -16 36 -8 12 -18 35 -21 50 -2 15 -9 50 -14
77 -6 28 -14 78 -20 113 -5 35 -14 73 -19 85 -8 18 -10 16 -9 -18 3 -118 -6
-142 -30 -88 -7 15 -21 33 -32 41 -11 8 -19 25 -19 43 0 17 -4 28 -9 25 -12
-8 -19 68 -9 95 5 11 10 64 12 117 l5 97 -15 -65 c-8 -36 -24 -105 -35 -155
-50 -223 -131 -486 -298 -965 -91 -260 -150 -464 -263 -909 -49 -196 -94 -372
-99 -391 -5 -19 -12 -43 -14 -54 -2 -10 -17 -61 -34 -115 -16 -53 -34 -116
-41 -141 -7 -25 -16 -49 -20 -55 -4 -5 -13 -37 -19 -70 -11 -56 -31 -117 -52
-157 -13 -25 -11 -28 7 -21 15 6 15 4 1 -18 -9 -13 -20 -53 -25 -89 -8 -55
-10 -59 -12 -25 -1 22 -3 36 -5 30 -2 -5 -20 -64 -40 -130 -54 -175 -87 -270
-97 -273 -4 -2 -6 -8 -3 -12 3 -5 -5 -33 -19 -62 -31 -68 -53 -120 -56 -133
-1 -5 -11 -27 -21 -47 -10 -21 -19 -43 -19 -51 0 -58 -221 -135 -360 -125 -52
4 -66 9 -107 45 l-48 40 -8 89 c-22 244 35 664 128 948 74 229 185 470 330
721 48 83 135 236 194 340 60 105 215 377 346 605 428 749 463 827 651 1470
31 107 59 201 62 209 3 9 1 12 -6 7 -7 -4 -12 -2 -12 3 0 6 7 11 15 11 8 0 17
12 21 28 5 23 11 43 19 62 2 3 6 14 9 25 4 11 21 30 39 43 20 14 26 22 16 22
-9 0 -29 -12 -44 -27z m-45 -127 c0 -3 -4 -8 -10 -11 -5 -3 -10 -1 -10 4 0 6
5 11 10 11 6 0 10 -2 10 -4z m521 -598 c11 -21 11 -22 -4 -9 -15 12 -17 11
-17 -4 0 -10 -3 -16 -6 -12 -6 6 4 47 11 47 3 0 10 -10 16 -22z m326 -1040
c-3 -8 -6 -5 -6 6 -1 11 2 17 5 13 3 -3 4 -12 1 -19z m-837 -848 c0 -5 -4 -10
-10 -10 -5 0 -10 5 -10 10 0 6 5 10 10 10 6 0 10 -4 10 -10z m-33 -197 c-3
-10 -5 -2 -5 17 0 19 2 27 5 18 2 -10 2 -26 0 -35z m-46 -314 c-1 -30 -7 -58
-11 -64 -4 -5 -11 -39 -14 -75 -8 -99 -18 -160 -26 -165 -17 -11 -30 26 -36
105 -7 82 -7 83 14 78 19 -5 22 -2 22 28 0 27 4 34 20 34 13 0 20 7 20 20 0
13 -7 20 -20 20 -13 0 -20 7 -20 20 0 11 7 20 15 20 9 0 15 9 15 21 0 12 5 19
13 16 8 -2 11 -21 8 -58z m369 -339 c12 -8 11 -10 -7 -10 -13 0 -23 5 -23 10
0 13 11 13 30 0z m-41 -12 c11 -6 16 -19 14 -29 -3 -11 -9 -16 -14 -14 -4 3
-5 13 -2 22 5 12 3 14 -7 8 -8 -5 -11 -4 -6 3 3 5 0 13 -6 15 -7 3 -10 6 -5 6
4 1 16 -4 26 -11z m-42 -53 c0 -8 -4 -12 -9 -9 -4 3 -8 9 -8 15 0 5 4 9 8 9 5
0 9 -7 9 -15z m-386 -46 c12 -6 18 -17 15 -25 -7 -18 4 -45 15 -38 10 6 11 -2
3 -33 -4 -13 -12 -23 -19 -23 -20 0 -30 41 -14 51 11 8 9 13 -9 28 -15 13 -18
21 -10 24 10 4 9 8 -2 16 -20 14 -4 14 21 0z m-129 -121 c10 -4 22 -17 28 -29
11 -19 30 -18 30 2 0 6 -5 7 -12 3 -7 -4 -8 -3 -4 4 9 16 36 15 36 0 0 -9 3
-9 12 0 21 21 37 14 32 -14 -3 -16 -1 -23 6 -19 5 3 10 12 10 20 0 36 108 63
137 34 8 -8 17 -8 31 0 34 18 86 13 111 -10 33 -31 41 -61 41 -148 0 -86 -15
-115 -48 -94 -13 7 -18 27 -20 79 -3 100 -8 116 -35 112 -20 -3 -22 -10 -27
-91 -4 -63 -9 -90 -20 -97 -35 -22 -47 -1 -49 90 -2 83 -17 113 -49 94 -13 -9
-18 -30 -22 -95 -5 -79 -6 -84 -29 -87 -34 -5 -41 12 -41 103 0 91 -7 108 -41
103 -24 -3 -24 -4 -20 -96 4 -112 -13 -146 -53 -106 -12 11 -16 35 -16 84 0
80 -16 106 -59 95 -36 -9 -44 -19 -44 -56 0 -35 24 -59 59 -59 25 0 36 -28 22
-54 -10 -18 -56 -21 -90 -5 -37 16 -62 79 -56 141 5 44 11 57 38 80 45 37 91
43 142 16z m-281 -5 c16 -10 32 -25 35 -35 10 -31 -83 -125 -112 -114 -17 7
-18 39 -2 66 15 24 4 37 -17 20 -22 -18 -20 -87 3 -98 26 -14 151 -20 155 -7
3 5 8 6 13 2 5 -4 3 -11 -3 -15 -6 -4 -13 -18 -14 -32 -8 -56 -148 -53 -206 5
-29 29 -33 40 -33 84 0 29 7 65 15 81 29 56 109 77 166 43z m-231 -13 c0 -11
-2 -20 -4 -20 -2 0 -6 9 -9 20 -3 11 -1 20 4 20 5 0 9 -9 9 -20z m610 -106 c0
-8 -5 -12 -10 -9 -6 4 -8 11 -5 16 9 14 15 11 15 -7z m10 -114 c0 -5 -5 -10
-11 -10 -5 0 -7 5 -4 10 3 6 8 10 11 10 2 0 4 -4 4 -10z m100 -5 c0 -8 -4 -15
-10 -15 -5 0 -7 7 -4 15 4 8 8 15 10 15 2 0 4 -7 4 -15z m-134 -29 c1 -9 -5
-12 -17 -9 -22 6 -25 19 -6 26 14 5 20 1 23 -17z m134 -11 c0 -8 -4 -15 -10
-15 -5 0 -10 7 -10 15 0 8 5 15 10 15 6 0 10 -7 10 -15z m277 -7 c-3 -8 -6 -5
-6 6 -1 11 2 17 5 13 3 -3 4 -12 1 -19z m-720 -20 c-3 -8 -6 -5 -6 6 -1 11 2
17 5 13 3 -3 4 -12 1 -19z m1023 12 c0 -5 -7 -10 -15 -10 -8 0 -15 5 -15 10 0
6 7 10 15 10 8 0 15 -4 15 -10z m78 -19 c3 -8 -1 -12 -9 -9 -7 2 -15 10 -17
17 -3 8 1 12 9 9 7 -2 15 -10 17 -17z m-1178 -11 c0 -5 -4 -10 -10 -10 -5 0
-10 5 -10 10 0 6 5 10 10 10 6 0 10 -4 10 -10z m414 1 c3 -5 -1 -11 -9 -14 -9
-4 -12 -1 -8 9 6 16 10 17 17 5z m486 -12 c0 -5 -4 -9 -10 -9 -5 0 -10 7 -10
16 0 8 5 12 10 9 6 -3 10 -10 10 -16z m-633 -95 c-3 -3 -12 -4 -19 -1 -8 3 -5
6 6 6 11 1 17 -2 13 -5z m628 -4 c3 -5 1 -10 -4 -10 -6 0 -11 5 -11 10 0 6 2
10 4 10 3 0 8 -4 11 -10z m195 1 c0 -6 -4 -13 -10 -16 -5 -3 -10 1 -10 9 0 9
5 16 10 16 6 0 10 -4 10 -9z m-100 -11 c0 -5 -4 -10 -10 -10 -5 0 -10 5 -10
10 0 6 5 10 10 10 6 0 10 -4 10 -10z m-73 -22 c-3 -8 -6 -5 -6 6 -1 11 2 17 5
13 3 -3 4 -12 1 -19z m-944 -27 c3 -15 1 -18 -11 -14 -11 5 -13 3 -7 -7 5 -9
4 -11 -3 -6 -9 5 -9 13 -2 27 13 24 16 24 23 0z m257 15 c0 -3 -4 -8 -10 -11
-5 -3 -10 -1 -10 4 0 6 5 11 10 11 6 0 10 -2 10 -4z m60 -22 c0 -8 -5 -12 -10
-9 -6 4 -8 11 -5 16 9 14 15 11 15 -7z m90 6 c0 -5 -2 -10 -4 -10 -3 0 -8 5
-11 10 -3 6 -1 10 4 10 6 0 11 -4 11 -10z m30 0 c0 -5 -4 -10 -10 -10 -5 0
-10 5 -10 10 0 6 5 10 10 10 6 0 10 -4 10 -10z m-150 -10 c0 -5 -5 -10 -11
-10 -5 0 -7 5 -4 10 3 6 8 10 11 10 2 0 4 -4 4 -10z m91 -37 c-12 -20 -14 -14
-5 12 4 9 9 14 11 11 3 -2 0 -13 -6 -23z m59 17 c0 -5 -2 -10 -4 -10 -3 0 -8
5 -11 10 -3 6 -1 10 4 10 6 0 11 -4 11 -10z m420 -20 c0 -5 -5 -10 -11 -10 -5
0 -7 5 -4 10 3 6 8 10 11 10 2 0 4 -4 4 -10z m-60 -100 c0 -5 -4 -10 -10 -10
-5 0 -10 5 -10 10 0 6 5 10 10 10 6 0 10 -4 10 -10z m-824 -27 c-7 -7 -26 7
-26 19 0 6 6 6 15 -2 9 -7 13 -15 11 -17z m294 3 c-7 -7 -13 -7 -20 0 -6 6 -3
10 10 10 13 0 16 -4 10 -10z m-170 -46 c0 -5 -4 -10 -9 -10 -6 0 -13 5 -16 10
-3 6 1 10 9 10 9 0 16 -4 16 -10z m-1460 -25 c0 -8 -4 -15 -10 -15 -5 0 -10 7
-10 15 0 8 5 15 10 15 6 0 10 -7 10 -15z m1775 5 c3 -5 -1 -10 -9 -10 -9 0
-16 5 -16 10 0 6 4 10 9 10 6 0 13 -4 16 -10z m2551 -147 c20 -40 27 -72 31
-147 10 -162 -31 -540 -82 -761 -29 -128 -30 -135 -11 -135 44 0 17 -115 -63
-273 -119 -234 -291 -410 -606 -619 -198 -132 -347 -205 -440 -217 -164 -19
-143 23 47 99 239 95 391 181 217 122 -69 -23 -124 -35 -164 -36 l-60 -1 1 42
c1 68 35 95 208 163 114 45 219 108 237 142 13 24 12 24 -78 -39 -65 -45 -77
-46 -43 -3 11 14 20 31 20 38 0 18 -47 -8 -133 -74 -99 -76 -112 -73 -49 11
22 29 76 77 132 115 88 62 101 75 172 181 42 63 102 162 133 221 55 106 111
248 97 248 -4 0 -36 -47 -70 -104 -93 -154 -185 -273 -313 -402 -110 -112
-185 -174 -210 -174 -6 0 35 48 92 108 259 268 355 420 474 756 64 182 117
403 140 591 21 168 23 178 44 169 9 -4 28 -6 42 -5 16 1 29 -5 33 -15 10 -25
24 -7 41 54 9 31 24 65 33 75 16 18 19 17 59 -30 24 -26 55 -71 69 -100z
m-356 -218 c-14 -121 -66 -342 -114 -483 -41 -122 -125 -310 -173 -390 -134
-222 -383 -481 -540 -561 -62 -31 -64 -26 -8 25 29 26 37 38 20 26 -61 -38
-58 -33 21 49 312 323 463 574 620 1034 50 144 98 245 110 232 3 -3 -4 -21
-16 -41 -22 -40 -96 -253 -104 -300 -3 -16 -10 -34 -16 -40 -15 -15 -12 -30 4
-17 8 7 17 24 20 39 14 57 29 81 57 91 16 5 29 17 29 26 0 8 4 23 9 33 12 23
26 60 40 103 13 42 31 241 31 354 0 44 4 98 8 120 12 69 14 -189 2 -300z
m-2550 300 c0 -8 6 -15 13 -16 9 0 9 -2 -1 -6 -6 -2 -9 -10 -5 -16 4 -7 -1 -6
-10 2 -18 15 -23 51 -7 51 6 0 10 -7 10 -15z m274 -40 c9 -14 15 -25 13 -25
-2 0 -14 11 -27 25 -13 14 -19 25 -13 25 6 0 18 -11 27 -25z m-24 -10 c0 -8
-4 -15 -10 -15 -5 0 -10 7 -10 15 0 8 5 15 10 15 6 0 10 -7 10 -15z m740 -81
c0 -20 -18 -17 -29 5 -9 16 -8 18 9 14 11 -3 20 -12 20 -19z m-1195 6 c3 -5 1
-10 -4 -10 -6 0 -11 5 -11 10 0 6 2 10 4 10 3 0 8 -4 11 -10z m240 -10 c3 -5
-1 -10 -10 -10 -9 0 -13 5 -10 10 3 6 8 10 10 10 2 0 7 -4 10 -10z m805 -40
c0 -5 -4 -10 -9 -10 -6 0 -13 5 -16 10 -3 6 1 10 9 10 9 0 16 -4 16 -10z
m-1110 -60 c0 -5 -4 -10 -10 -10 -5 0 -10 5 -10 10 0 6 5 10 10 10 6 0 10 -4
10 -10z m790 6 c0 -3 -4 -8 -10 -11 -5 -3 -10 -1 -10 4 0 6 5 11 10 11 6 0 10
-2 10 -4z m-794 -74 c-4 -3 -14 2 -24 12 -16 18 -16 18 6 6 13 -6 21 -14 18
-18z m342 0 c6 -18 -15 -14 -22 4 -4 10 -1 14 6 12 6 -2 14 -10 16 -16z m678
-9 c-7 -7 -26 7 -26 19 0 6 6 6 15 -2 9 -7 13 -15 11 -17z m-886 -3 c0 -5 -2
-10 -4 -10 -3 0 -8 5 -11 10 -3 6 -1 10 4 10 6 0 11 -4 11 -10z m1005 -87 c0
-1 -10 0 -22 3 -13 4 -19 12 -17 19 4 11 9 10 23 -3 10 -9 17 -18 16 -19z m5
27 c0 -5 -4 -10 -10 -10 -5 0 -10 5 -10 10 0 6 5 10 10 10 6 0 10 -4 10 -10z
m-780 -10 c0 -5 -2 -10 -4 -10 -3 0 -8 5 -11 10 -3 6 -1 10 4 10 6 0 11 -4 11
-10z m510 -10 c0 -5 -4 -10 -10 -10 -5 0 -10 5 -10 10 0 6 5 10 10 10 6 0 10
-4 10 -10z m-400 -44 c8 -11 9 -16 1 -16 -6 0 -11 5 -11 10 0 6 -9 10 -20 10
-11 0 -20 7 -20 15 0 12 4 13 18 6 10 -5 24 -17 32 -25z m370 3 c0 -6 -4 -7
-10 -4 -5 3 -10 11 -10 16 0 6 5 7 10 4 6 -3 10 -11 10 -16z m-591 -124 c3
-17 2 -17 -13 -3 -19 20 -21 31 -3 26 6 -3 14 -13 16 -23z m111 -35 c0 -5 -2
-10 -4 -10 -3 0 -8 5 -11 10 -3 6 -1 10 4 10 6 0 11 -4 11 -10z m625 -30 c3
-5 1 -10 -4 -10 -6 0 -11 5 -11 10 0 6 2 10 4 10 3 0 8 -4 11 -10z m-185 -31
c0 -6 -4 -7 -10 -4 -5 3 -10 11 -10 16 0 6 5 7 10 4 6 -3 10 -11 10 -16z
m-670 -134 c0 -7 8 -18 17 -24 10 -5 15 -13 11 -17 -4 -4 -16 4 -27 17 -23 27
-26 39 -11 39 6 0 10 -7 10 -15z m634 -4 c14 -15 14 -20 3 -30 -11 -9 -17 -7
-28 6 -12 15 -12 16 4 10 9 -3 17 -2 17 3 0 6 -9 10 -21 10 -11 0 -17 5 -14
10 9 15 20 12 39 -9z m-1867 -13 c-3 -8 -6 -5 -6 6 -1 11 2 17 5 13 3 -3 4
-12 1 -19z m1203 -2 c0 -3 -4 -8 -10 -11 -5 -3 -10 -1 -10 4 0 6 5 11 10 11 6
0 10 -2 10 -4z m307 -36 c14 -11 20 -20 14 -20 -7 0 -21 9 -33 20 -12 11 -18
20 -14 20 4 0 19 -9 33 -20z m158 -20 c-3 -5 -12 -10 -18 -10 -7 0 -6 4 3 10
19 12 23 12 15 0z m51 -17 c-7 -7 -26 7 -26 19 0 6 6 6 15 -2 9 -7 13 -15 11
-17z m-551 -21 c-3 -3 -11 0 -18 7 -9 10 -8 11 6 5 10 -3 15 -9 12 -12z m450
8 c-3 -5 -11 -10 -16 -10 -6 0 -7 5 -4 10 3 6 11 10 16 10 6 0 7 -4 4 -10z
m55 0 c0 -5 -2 -10 -4 -10 -3 0 -8 5 -11 10 -3 6 -1 10 4 10 6 0 11 -4 11 -10z
m40 -10 c0 -5 -2 -10 -4 -10 -3 0 -8 5 -11 10 -3 6 -1 10 4 10 6 0 11 -4 11
-10z m-580 -4 c0 -3 -4 -8 -10 -11 -5 -3 -10 -1 -10 4 0 6 5 11 10 11 6 0 10
-2 10 -4z m250 -56 c0 -5 -4 -10 -10 -10 -5 0 -10 5 -10 10 0 6 5 10 10 10 6
0 10 -4 10 -10z m-100 -110 c0 -5 -2 -10 -4 -10 -3 0 -8 5 -11 10 -3 6 -1 10
4 10 6 0 11 -4 11 -10z m50 -8 c0 -13 -12 -22 -22 -16 -10 6 -1 24 13 24 5 0
9 -4 9 -8z m496 -69 c-10 -10 -19 5 -10 18 6 11 8 11 12 0 2 -7 1 -15 -2 -18z
m-276 7 c0 -5 -4 -10 -10 -10 -5 0 -10 5 -10 10 0 6 5 10 10 10 6 0 10 -4 10
-10z m330 -25 c0 -14 -29 -29 -38 -20 -3 3 -1 5 5 5 6 0 9 9 6 20 -4 16 -2 19
11 14 9 -3 16 -12 16 -19z m-1825 -118 c12 -29 12 -34 -1 -34 -8 0 -12 2 -10
5 3 2 -2 22 -10 44 -24 69 -10 59 21 -15z m1562 31 c-3 -8 -6 -5 -6 6 -1 11 2
17 5 13 3 -3 4 -12 1 -19z m-107 -38 c8 -5 12 -11 10 -14 -3 -2 -14 2 -24 10
-22 15 -10 19 14 4z m369 -89 c-15 -5 -22 6 -14 19 6 9 10 9 16 -1 5 -8 4 -15
-2 -18z m-1619 -21 c6 -11 8 -20 6 -20 -3 0 -10 9 -16 20 -6 11 -8 20 -6 20 3
0 10 -9 16 -20z m1364 -23 c-7 -18 -24 -23 -24 -7 0 6 4 10 10 10 5 0 7 8 3
18 -4 13 -3 14 6 6 6 -6 9 -18 5 -27z m-34 13 c0 -5 -4 -10 -10 -10 -5 0 -10
5 -10 10 0 6 5 10 10 10 6 0 10 -4 10 -10z m-1279 -67 c13 -16 12 -17 -3 -4
-10 7 -18 15 -18 17 0 8 8 3 21 -13z m1189 7 c0 -5 -4 -10 -10 -10 -5 0 -10 5
-10 10 0 6 5 10 10 10 6 0 10 -4 10 -10z m50 -120 c0 -5 -5 -10 -11 -10 -5 0
-7 5 -4 10 3 6 8 10 11 10 2 0 4 -4 4 -10z m0 -30 c0 -5 -4 -10 -10 -10 -5 0
-10 5 -10 10 0 6 5 10 10 10 6 0 10 -4 10 -10z m1170 -490 c0 -5 6 -10 14 -10
23 0 25 -26 5 -59 -16 -27 -25 -32 -52 -29 -20 2 -32 8 -32 18 0 9 7 14 18 12
9 -2 17 -2 17 0 0 2 4 18 9 36 9 31 8 33 -11 26 -14 -4 -18 -2 -14 5 9 14 46
15 46 1z m-1727 -27 c-7 -2 -19 -2 -25 0 -7 3 -2 5 12 5 14 0 19 -2 13 -5z
m2327 -59 c0 -9 -241 -120 -313 -144 -72 -23 -190 -47 -272 -55 l-50 -5 56 13
c37 8 54 16 52 25 -3 7 13 20 39 32 62 28 81 24 30 -7 -24 -14 -41 -27 -39
-29 10 -10 313 94 447 154 54 25 50 23 50 16z m-2334 -23 c27 -10 84 -29 127
-42 43 -13 74 -25 68 -27 -12 -4 -161 40 -226 66 -63 26 -35 29 31 3z m1551
-57 c-3 -3 -12 -4 -19 -1 -8 3 -5 6 6 6 11 1 17 -2 13 -5z m-1304 -21 c-7 -2
-19 -2 -25 0 -7 3 -2 5 12 5 14 0 19 -2 13 -5z m94 -19 c-3 -3 -12 -4 -19 -1
-8 3 -5 6 6 6 11 1 17 -2 13 -5z m113 -14 c0 -11 -14 -11 -50 0 -22 7 -21 8
13 9 20 1 37 -3 37 -9z m1181 -15 c-18 -8 -43 -15 -55 -14 -13 0 -6 5 19 14
54 18 78 18 36 0z m-1401 -45 c0 -5 -7 -7 -15 -4 -8 4 -15 8 -15 10 0 2 7 4
15 4 8 0 15 -4 15 -10z m130 -36 c32 -13 32 -14 5 -9 -54 11 -105 26 -105 31
0 7 56 -5 100 -22z m67 -20 c-3 -3 -12 -4 -19 -1 -8 3 -5 6 6 6 11 1 17 -2 13
-5z m46 -11 c-7 -2 -19 -2 -25 0 -7 3 -2 5 12 5 14 0 19 -2 13 -5z m44 -9 c-3
-3 -12 -4 -19 -1 -8 3 -5 6 6 6 11 1 17 -2 13 -5z"/>
<path d="M3169 4449 c-52 -56 -36 -147 34 -184 32 -17 39 -18 47 -5 11 18 4
30 -20 30 -31 0 -60 39 -60 81 0 67 73 99 120 53 9 -9 17 -41 20 -86 3 -44 10
-73 18 -76 9 -3 12 15 12 67 0 74 -17 132 -32 109 -5 -9 -8 -6 -8 8 0 25 -18
34 -67 34 -26 0 -42 -8 -64 -31z"/>
<path d="M3461 4447 c-19 -30 -21 -48 -19 -114 4 -101 21 -97 28 6 5 85 11 96
50 105 41 10 61 -29 61 -119 0 -58 4 -75 15 -75 11 0 14 18 14 84 0 64 4 88
16 100 21 21 40 20 64 -4 17 -17 20 -33 20 -100 0 -64 3 -80 15 -80 12 0 15
17 15 89 0 75 -3 92 -21 116 -20 24 -26 26 -68 21 -62 -7 -59 -7 -117 0 -50 6
-51 6 -73 -29z"/>
<path d="M2933 4483 c-39 -7 -73 -59 -73 -110 0 -87 43 -123 147 -123 46 0 54
3 51 18 -2 13 -16 18 -63 22 -33 3 -68 10 -78 16 -24 14 -35 88 -16 110 18 22
58 36 75 26 12 -6 10 -14 -11 -42 -16 -22 -22 -37 -15 -44 14 -14 40 12 40 43
0 18 3 22 9 13 6 -11 11 -10 25 3 21 22 20 30 -6 47 -29 19 -57 26 -85 21z"/>
<path d="M3602 7745 c0 -16 2 -22 5 -12 2 9 2 23 0 30 -3 6 -5 -1 -5 -18z"/>
<path d="M3591 7674 c0 -11 3 -14 6 -6 3 7 2 16 -1 19 -3 4 -6 -2 -5 -13z"/>
<path d="M3582 7620 c0 -14 2 -19 5 -12 2 6 2 18 0 25 -3 6 -5 1 -5 -13z"/>
<path d="M2937 6720 c-19 -22 -22 -35 -7 -25 10 6 34 45 28 45 -2 0 -11 -9
-21 -20z"/>
<path d="M2792 6503 c-12 -14 -22 -29 -22 -34 0 -5 -4 -9 -10 -9 -5 0 -10 -9
-10 -20 0 -11 5 -20 11 -20 5 0 7 -5 4 -10 -4 -7 -14 -3 -25 10 l-18 21 0 -23
c0 -40 -27 -106 -39 -94 -3 3 0 12 7 21 7 8 9 15 4 15 -5 0 -20 -21 -34 -47
-14 -26 -32 -49 -40 -52 -13 -4 -13 -2 -1 12 7 10 11 17 8 17 -8 0 -107 -138
-107 -148 0 -5 -11 -26 -25 -46 -14 -20 -22 -44 -19 -53 4 -13 3 -15 -4 -5 -7
10 -12 8 -25 -11 -8 -13 -23 -31 -31 -40 -24 -24 -34 -59 -25 -89 6 -21 4 -26
-7 -21 -8 3 -14 0 -14 -6 0 -6 4 -11 9 -11 16 0 20 -29 10 -60 -20 -57 -2 -55
24 3 15 32 27 62 27 67 0 5 6 13 13 17 13 8 74 94 112 159 11 18 49 78 85 132
79 118 85 129 106 167 9 17 26 40 37 52 11 13 18 26 14 29 -3 3 5 17 17 31 24
25 25 58 2 66 -7 3 -22 -6 -34 -20z m18 -39 c0 -8 -4 -12 -10 -9 -5 3 -10 13
-10 21 0 8 5 12 10 9 6 -3 10 -13 10 -21z m-20 -14 c0 -5 -4 -10 -10 -10 -5 0
-10 5 -10 10 0 6 5 10 10 10 6 0 10 -4 10 -10z"/>
<path d="M2317 5825 c-26 -47 -47 -90 -47 -95 0 -5 -17 -36 -37 -69 -80 -128
-151 -261 -139 -261 2 0 20 27 40 60 21 33 41 60 47 60 5 0 9 9 9 20 0 12 7
20 16 20 12 0 15 7 11 26 -3 19 -1 24 10 19 12 -4 14 0 10 15 -3 11 -1 20 3
20 11 0 60 85 60 104 0 9 7 16 16 16 10 0 14 5 10 15 -3 9 2 31 11 51 14 29
18 32 24 17 3 -10 6 0 6 25 0 23 -1 42 -2 42 -1 0 -22 -38 -48 -85z"/>
<path d="M2376 5825 c-9 -26 -7 -32 5 -12 6 10 9 21 6 23 -2 3 -7 -2 -11 -11z"/>
<path d="M2256 5770 c-22 -56 -19 -65 5 -11 11 24 18 46 15 48 -2 2 -11 -14
-20 -37z"/>
<path d="M2337 5803 c-4 -3 -7 -11 -7 -17 0 -6 5 -5 12 2 6 6 9 14 7 17 -3 3
-9 2 -12 -2z"/>
<path d="M2353 5721 c0 -11 5 -18 9 -15 4 3 5 11 1 19 -7 21 -12 19 -10 -4z"/>
<path d="M2205 5680 c-4 -12 -5 -24 -2 -27 3 -2 8 5 12 17 4 12 5 24 2 27 -3
2 -8 -5 -12 -17z"/>
<path d="M2290 5684 c0 -8 5 -12 10 -9 6 3 10 10 10 16 0 5 -4 9 -10 9 -5 0
-10 -7 -10 -16z"/>
<path d="M2145 5580 c-10 -22 -21 -40 -24 -40 -3 0 -13 -15 -20 -32 -8 -18
-24 -40 -34 -49 -18 -14 -18 -16 -4 -22 12 -4 27 15 64 81 59 106 57 102 45
102 -5 0 -17 -18 -27 -40z"/>
<path d="M2041 5404 c0 -11 3 -14 6 -6 3 7 2 16 -1 19 -3 4 -6 -2 -5 -13z"/>
<path d="M2046 5334 c-5 -14 -4 -15 9 -4 17 14 19 20 6 20 -5 0 -12 -7 -15
-16z"/>
<path d="M4447 4672 c3 -12 9 -25 14 -28 14 -8 11 10 -6 32 -13 18 -14 18 -8
-4z"/>
<path d="M4368 4663 c6 -2 18 -2 25 0 6 3 1 5 -13 5 -14 0 -19 -2 -12 -5z"/>
<path d="M4355 4620 c3 -5 8 -10 11 -10 2 0 4 5 4 10 0 6 -5 10 -11 10 -5 0
-7 -4 -4 -10z"/>
<path d="M4436 4563 c-6 -14 -5 -15 5 -6 7 7 10 15 7 18 -3 3 -9 -2 -12 -12z"/>
<path d="M3940 4473 c-29 -10 -40 -37 -40 -94 0 -48 -4 -60 -22 -73 -12 -9
-30 -16 -40 -16 -11 0 -18 -7 -18 -18 0 -14 8 -19 28 -20 54 -1 82 42 82 127
0 52 10 67 50 73 14 1 24 8 23 13 -3 11 -41 17 -63 8z"/>
<path d="M4501 4374 c0 -11 3 -14 6 -6 3 7 2 16 -1 19 -3 4 -6 -2 -5 -13z"/>
<path d="M4142 4350 c0 -14 2 -19 5 -12 2 6 2 18 0 25 -3 6 -5 1 -5 -13z"/>
<path d="M4501 4334 c0 -11 3 -14 6 -6 3 7 2 16 -1 19 -3 4 -6 -2 -5 -13z"/>
<path d="M4148 4283 c7 -3 16 -2 19 1 4 3 -2 6 -13 5 -11 0 -14 -3 -6 -6z"/>
<path d="M4175 4270 l-40 -7 37 -2 c20 0 40 4 43 9 3 6 5 9 3 9 -2 -1 -21 -5
-43 -9z"/>
<path d="M4421 4134 c0 -11 3 -14 6 -6 3 7 2 16 -1 19 -3 4 -6 -2 -5 -13z"/>
<path d="M4512 3960 c0 -14 2 -19 5 -12 2 6 2 18 0 25 -3 6 -5 1 -5 -13z"/>
<path d="M4265 3858 c17 -6 35 -18 42 -27 10 -13 12 -13 13 -2 0 20 -31 40
-60 40 -24 -1 -24 -1 5 -11z"/>
<path d="M4250 3820 c0 -11 4 -20 8 -20 4 0 8 9 8 20 0 11 -4 20 -8 20 -4 0
-8 -9 -8 -20z"/>
<path d="M4247 3779 c7 -7 15 -10 18 -7 3 3 -2 9 -12 12 -14 6 -15 5 -6 -5z"/>
<path d="M4536 3183 c-6 -14 -5 -15 5 -6 7 7 10 15 7 18 -3 3 -9 -2 -12 -12z"/>
<path d="M3860 3140 c0 -5 5 -10 11 -10 5 0 7 5 4 10 -3 6 -8 10 -11 10 -2 0
-4 -4 -4 -10z"/>
<path d="M4183 3090 c-1 -11 2 -22 6 -24 4 -3 7 4 6 14 -2 27 -10 33 -12 10z"/>
<path d="M4101 3014 c0 -11 3 -14 6 -6 3 7 2 16 -1 19 -3 4 -6 -2 -5 -13z"/>
<path d="M4011 2946 c11 -15 11 -20 2 -23 -7 -3 -13 -10 -13 -16 0 -6 8 -4 17
6 16 16 16 18 -2 35 -18 16 -18 16 -4 -2z"/>
<path d="M4016 2891 c-3 -5 1 -12 10 -15 8 -3 12 -11 9 -16 -5 -8 -12 -7 -23
1 -16 12 -16 11 -1 -4 18 -21 45 -14 52 13 6 24 -34 42 -47 21z"/>
<path d="M3950 2830 c0 -5 5 -10 11 -10 5 0 7 5 4 10 -3 6 -8 10 -11 10 -2 0
-4 -4 -4 -10z"/>
<path d="M3910 2820 c0 -5 7 -10 15 -10 9 0 15 -7 13 -16 -2 -10 3 -18 10 -20
7 -1 8 0 2 3 -5 2 -7 9 -4 14 6 11 -13 39 -27 39 -5 0 -9 -4 -9 -10z"/>
<path d="M3898 2714 c-4 -17 -1 -21 15 -20 11 1 22 7 23 14 1 7 0 8 -3 2 -7
-16 -21 -12 -25 8 -3 14 -5 14 -10 -4z"/>
<path d="M4230 2700 c0 -5 7 -7 15 -4 8 4 15 1 15 -5 0 -6 5 -11 11 -11 8 0 8
5 -1 15 -14 17 -40 20 -40 5z"/>
<path d="M3962 2613 c4 -21 33 -25 33 -3 0 8 -8 16 -18 18 -14 3 -18 -1 -15
-15z m28 -3 c0 -5 -4 -10 -10 -10 -5 0 -10 5 -10 10 0 6 5 10 10 10 6 0 10 -4
10 -10z"/>
<path d="M3640 2520 c-8 -27 -6 -38 6 -33 8 3 14 0 14 -5 0 -6 -7 -12 -15 -14
-13 -2 -13 -5 3 -14 16 -10 18 -8 20 23 2 20 -1 32 -7 29 -5 -3 -12 0 -14 6
-3 7 -6 11 -7 8z"/>
<path d="M3774 2409 c0 -22 12 -25 19 -5 3 8 0 16 -6 19 -7 3 -13 -3 -13 -14z"/>
</g>
</svg>
