<?xml version="1.0" encoding="UTF-8"?>
<svg id="Layer_1" data-name="Layer 1" xmlns="http://www.w3.org/2000/svg" viewBox="0 0 1000 1000">
  <defs>
    <style>
      .cls-1 {
        fill: #fff;
        font-size: 36px;
      }

      .cls-1, .cls-2 {
        font-family: SourceSerifRoman-Semibold, 'Source Serif Variable';
        font-variation-settings: 'wght' 600;
        font-weight: 600;
      }

      .cls-3 {
        fill: #4a91a0;
      }

      .cls-2 {
        fill: #fff;
        font-size: 14px;
      }
    </style>
  </defs>
  <path class="cls-3" d="M493.37,389.25l-3.57,13.78c-29.61,2.86-55.38,18.88-71.36,42.14-9.3,13.5-15.29,29.43-16.84,46.64l-14.78,4.2c.93-18.46,6.3-35.75,15.07-50.81,18.57-31.94,52.39-53.9,91.48-55.95Z"/>
  <path class="cls-3" d="M596.6,444.8l-16.55,.04c-15.91-22.96-41.37-38.78-70.63-41.76l-4.04-13.83c38.92,2.05,72.6,23.84,91.22,55.55Z"/>
  <path class="cls-3" d="M496.09,614.42c-41.2-1.17-76.85-24.45-95.52-58.4-7.74-14.03-12.55-29.89-13.66-46.76l15.09,4.02c2,15.7,7.71,30.23,16.23,42.7,16.3,23.91,42.91,40.24,73.43,42.6l4.43,15.84Z"/>
  <path class="cls-3" d="M598.38,555.62c-18.04,33.1-52.18,56.15-91.9,58.62l4.35-16.02c29.07-3.39,54.27-19.47,69.88-42.57l17.67-.03Z"/>
  <path class="cls-3" d="M456.36,463.33c-2.67-3.23-5.35-6.46-8.02-9.69,1.46,4.04,2.92,8.09,4.39,12.13l-2.11,1.41-10.63-27.35,22.12,19.64-5.75,3.86Z"/>
  <path class="cls-3" d="M464.67,550.41l-26.56,12.48,18.08-23.42,4.24,5.47c-3.04,2.89-6.08,5.79-9.12,8.68,3.93-1.74,7.87-3.48,11.8-5.21l1.56,2Z"/>
  <path class="cls-3" d="M563.02,566.75l-25.51-14.99,4.89-4.89c3.25,2.65,6.5,5.3,9.76,7.95-2.22-3.68-4.44-7.37-6.66-11.05l1.79-1.8,15.73,24.78Z"/>
  <path class="cls-3" d="M565.91,439.83l-18.67,22.96-4.1-5.58c3.11-2.81,6.22-5.63,9.33-8.44-3.97,1.64-7.95,3.27-11.93,4.91l-1.5-2.04,26.87-11.81Z"/>
  <path class="cls-3" d="M517.63,444.8h-17.01c-1.04-10.26-2.08-20.52-3.12-30.77-2.55,10.25-5.1,20.51-7.65,30.77h-6.24l9.4-42.02,3.05-13.64,3.3-14.73,3.83,14.75,3.55,13.68,10.89,41.96Z"/>
  <path class="cls-3" d="M517.63,556.04l-10.02,42.5-3.73,15.84-2.8,11.86-2.92-11.78-3.88-15.71-10.67-43.1,17.01,.19c.92,10.27,1.84,20.54,2.77,30.81,2.66-10.23,5.33-20.46,8-30.68l6.24,.07Z"/>
  <path class="cls-3" d="M440.17,501.78c-10.26,.97-20.53,1.93-30.8,2.9,10.24,2.62,20.48,5.25,30.72,7.87l-.04,6.24-38.43-8.89-14.85-3.44-17-3.93,16.95-4.27,14.67-3.69,38.9-9.8-.12,17.01Z"/>
  <path class="cls-3" d="M456.36,463.33c-2.67-3.23-5.35-6.46-8.02-9.69,1.46,4.04,2.92,8.09,4.39,12.13l-2.11,1.41-10.63-27.35,22.12,19.64-5.75,3.86Z"/>
  <path class="cls-3" d="M464.67,550.41l-26.56,12.48,18.08-23.42,4.24,5.47c-3.04,2.89-6.08,5.79-9.12,8.68,3.93-1.74,7.87-3.48,11.8-5.21l1.56,2Z"/>
  <path class="cls-3" d="M565.91,439.83l-18.67,22.96-4.1-5.58c3.11-2.81,6.22-5.63,9.33-8.44-3.97,1.64-7.95,3.27-11.93,4.91l-1.5-2.04,26.87-11.81Z"/>
  <path class="cls-3" d="M563.02,566.75l-25.51-14.99,4.89-4.89c3.25,2.65,6.5,5.3,9.76,7.95-2.22-3.68-4.44-7.37-6.66-11.05l1.79-1.8,15.73,24.78Z"/>
  <path class="cls-3" d="M456.36,463.33c-2.67-3.23-5.35-6.46-8.02-9.69,1.46,4.04,2.92,8.09,4.39,12.13l-2.11,1.41-10.63-27.35,22.12,19.64-5.75,3.86Z"/>
  <path class="cls-3" d="M464.67,550.41l-26.56,12.48,18.08-23.42,4.24,5.47c-3.04,2.89-6.08,5.79-9.12,8.68,3.93-1.74,7.87-3.48,11.8-5.21l1.56,2Z"/>
  <path class="cls-3" d="M563.02,566.75l-25.51-14.99,4.89-4.89c3.25,2.65,6.5,5.3,9.76,7.95-2.22-3.68-4.44-7.37-6.66-11.05l1.79-1.8,15.73,24.78Z"/>
  <path class="cls-3" d="M565.91,439.83l-18.67,22.96-4.1-5.58c3.11-2.81,6.22-5.63,9.33-8.44-3.97,1.64-7.95,3.27-11.93,4.91l-1.5-2.04,26.87-11.81Z"/>
  <path class="cls-3" d="M493.37,389.25l-3.57,13.78c-29.61,2.86-55.38,18.88-71.36,42.14-9.3,13.5-15.29,29.43-16.84,46.64l-14.78,4.2c.93-18.46,6.3-35.75,15.07-50.81,18.57-31.94,52.39-53.9,91.48-55.95Z"/>
  <path class="cls-3" d="M506.74,402.84l10.89,41.96h-17.01c-1.04-10.26-2.08-20.52-3.12-30.77-2.55,10.25-5.1,20.51-7.65,30.77h-6.24l9.4-42.02,3.05-13.64,3.3-14.73,3.83,14.75,3.55,13.68Z"/>
  <path class="cls-3" d="M596.6,444.8l-16.55,.04c-15.91-22.96-41.37-38.78-70.63-41.76l-4.04-13.83c38.92,2.05,72.6,23.84,91.22,55.55Z"/>
  <path class="cls-3" d="M440.17,501.78c-10.26,.97-20.53,1.93-30.8,2.9,10.24,2.62,20.48,5.25,30.72,7.87l-.04,6.24-38.43-8.89-14.85-3.44-17-3.93,16.95-4.27,14.67-3.69,38.9-9.8-.12,17.01Z"/>
  <path class="cls-3" d="M496.09,614.42c-41.2-1.17-76.85-24.45-95.52-58.4-7.74-14.03-12.55-29.89-13.66-46.76l15.09,4.02c2,15.7,7.71,30.23,16.23,42.7,16.3,23.91,42.91,40.24,73.43,42.6l4.43,15.84Z"/>
  <path class="cls-3" d="M517.63,556.04l-10.02,42.5-3.73,15.84-2.8,11.86-2.92-11.78-3.88-15.71-10.67-43.1,17.01,.19c.92,10.27,1.84,20.54,2.77,30.81,2.66-10.23,5.33-20.46,8-30.68l6.24,.07Z"/>
  <path class="cls-3" d="M598.38,555.62c-18.04,33.1-52.18,56.15-91.9,58.62l4.35-16.02c29.07-3.39,54.27-19.47,69.88-42.57l17.67-.03Z"/>
  <text class="cls-1" transform="translate(474.44 517.05)"><tspan x="0" y="-10">GSUN</tspan></text>
  <text class="cls-2" transform="translate(479.32 533.26)"><tspan x="0" y="-10">MARINE SERVICES</tspan></text>
</svg>