<?xml version="1.0" standalone="no"?>
<!DOCTYPE svg PUBLIC "-//W3C//DTD SVG 20010904//EN"
 "http://www.w3.org/TR/2001/REC-SVG-20010904/DTD/svg10.dtd">
<svg version="1.0" xmlns="http://www.w3.org/2000/svg"
 width="128.000000pt" height="144.000000pt" viewBox="0 0 128.000000 144.000000"
 preserveAspectRatio="xMidYMid meet">

<g transform="translate(0.000000,144.000000) scale(0.100000,-0.100000)"
fill="#000000" stroke="none">
<path d="M646 1282 c-25 -76 -80 -172 -179 -312 -179 -253 -225 -398 -182
-565 60 -229 279 -361 493 -296 196 59 322 280 278 490 -22 104 -68 196 -175
351 -111 160 -172 266 -195 338 -10 28 -18 52 -19 52 -1 0 -10 -26 -21 -58z
m-206 -556 c0 -2 -7 -20 -15 -39 -22 -52 -19 -155 5 -220 15 -40 36 -69 80
-110 33 -30 60 -60 60 -66 0 -14 -37 -51 -50 -51 -24 0 -92 78 -122 138 -30
60 -33 76 -33 152 0 73 4 93 28 143 16 31 33 57 38 57 5 0 9 -2 9 -4z"/>
</g>
</svg>
